<?xml version="1.0" encoding="utf-8"?>
<!-- Generator: Adobe Illustrator 21.0.0, SVG Export Plug-In . SVG Version: 6.00 Build 0)  -->
<svg version="1.1" id="Warstwa_1" xmlns="http://www.w3.org/2000/svg" xmlns:xlink="http://www.w3.org/1999/xlink" x="0px" y="0px"
	 viewBox="0 0 39.8 32" style="enable-background:new 0 0 39.8 32;" xml:space="preserve">
<style type="text/css">
	.st0{fill:#E30613;}
</style>
<path class="st0" d="M37.6,11.7c-0.6-0.6-1.3-0.9-2.2-1.2s-1.7-0.2-2.3-0.2h-1.9c0.1-0.1,0.2-0.1,0.2-0.2c1.3-1,2-2.7,2-4.4
	c0-2.9-2.2-5.8-6.4-5.7l-6.8,0.1h-1.6c-0.1,0-0.2,0-0.2,0.1C12.7,0.3,7.1,0.4,1.4,0.6c-0.1,0-0.1,0-0.2,0.1C1.2,0.8,1.2,0.9,1.3,1
	c1,1.4,1.8,3.1,1.8,4.9c0-0.4,0-0.9-0.1-1.3c1.2,0.3,2.3,0.5,3.5,0.6C7.7,5.3,8.8,5.4,10,5.4s2.3-0.1,3.5-0.2s2.3-0.3,3.5-0.6
	c-1.2-0.3-2.3-0.5-3.5-0.6c-1.2-0.1-2.3-0.2-3.5-0.2S7.7,3.9,6.5,4C5.4,4.1,4.2,4.2,3.1,4.5C3,4.1,2.9,3.7,2.8,3.2
	c-0.2-0.7-0.6-1.4-1-2.1c5.5,0.2,11,0.3,16.5,0.4c0.1,0,0.2,0.1,0.3,0.1c1.1,0,2.2,0.5,2.9,1.3c0.8,0.8,1.2,1.9,1.2,2.9
	c0,1.1-0.4,2.2-1.2,2.9c-0.8,0.8-1.8,1.3-2.9,1.3c-0.1,0-0.2,0-0.3,0.1c-5.5,0.1-11,0.2-16.5,0.4c0.4-0.6,0.7-1.3,1-2.1
	C2.9,8,3,7.6,3.1,7.1c0.8,0.3,1.7,0.5,2.5,0.6C6.3,7.8,7.2,7.9,8,7.9s1.7-0.1,2.5-0.2c0.8-0.2,1.7-0.3,2.5-0.6
	c-0.8-0.3-1.7-0.5-2.5-0.6C9.7,6.4,8.8,6.3,8,6.3S6.3,6.4,5.6,6.4C4.8,6.6,3.9,6.8,3.1,7.1c0.1-0.4,0.1-0.9,0.1-1.3
	c-0.1,1.8-0.8,3.4-1.8,4.8c0,0,0,0.1-0.1,0.2c0,0.2,0.1,0.2,0.2,0.2c2,0.1,4,0.2,6,0.2c1,1.4,1.8,3,1.8,4.8c0-0.4,0-0.9-0.1-1.3
	c1.2,0.3,2.3,0.5,3.5,0.6c1.2,0.1,2.3,0.2,3.5,0.2s2.3-0.1,3.5-0.2s2.3-0.3,3.5-0.6c-1.2-0.3-2.3-0.5-3.5-0.6
	c-1.2-0.1-2.3-0.2-3.5-0.2s-2.3,0.1-3.5,0.2s-2.3,0.3-3.5,0.6c-0.1-0.5-0.2-0.9-0.3-1.3c-0.2-0.7-0.6-1.4-1-2.1
	c5.5,0.2,11,0.3,16.5,0.4c0.1,0,0.2,0.1,0.3,0.1c1.1,0,2.2,0.5,2.9,1.3c0.8,0.8,1.2,1.9,1.2,2.9c0,1.1-0.4,2.2-1.2,2.9
	c-0.8,0.8-1.8,1.3-2.9,1.3c-0.1,0-0.2,0-0.3,0.1c-3.3,0.1-6.5,0.2-9.8,0.2h-1.5l-5-0.1C8.5,20,8.7,19.3,9,18.7
	c0.2-0.4,0.2-0.9,0.3-1.3c0.8,0.3,1.7,0.5,2.5,0.6c1.6,0.2,3.3,0.2,5,0c0.8-0.2,1.7-0.3,2.5-0.6c-0.8-0.3-1.7-0.5-2.5-0.6
	c-0.8-0.1-1.7-0.2-2.5-0.2s-1.7,0.1-2.5,0.2c-0.8,0.2-1.7,0.3-2.5,0.6c0.1-0.4,0.1-0.9,0.1-1.3c-0.1,1.7-0.7,3.2-1.6,4.4H6.4
	c-0.6,0-1.6,0-2.3,0.2C3.4,21,2.6,21.4,2,22c-1.3,1-2,2.7-2,4.4c0,3,2.3,5.8,6.4,5.7C10.8,32,20,32,31.9,31.5c0.1,0,0.1,0,0.2-0.1
	c0.1-0.1,0.2-0.2,0.1-0.3c-1-1.4-1.8-3.1-1.8-4.8c0,0.4,0,0.9,0.1,1.3c-1.2-0.3-2.3-0.5-3.5-0.6c-1.2-0.1-2.3-0.2-3.5-0.2
	s-2.3,0.1-3.5,0.2s-2.3,0.3-3.5,0.6c1.2,0.3,2.3,0.5,3.5,0.6c2.3,0.2,4.5,0.2,7,0c1.2-0.1,2.3-0.3,3.5-0.6c0.1,0.5,0.2,0.9,0.3,1.3
	c0.2,0.7,0.6,1.4,1,2.1c-5.5-0.2-11-0.3-16.5-0.4c-0.1,0-0.2-0.1-0.3-0.1c-1.1,0-2.2-0.5-2.9-1.3c-0.8-0.8-1.2-1.9-1.2-2.9
	c0-1.1,0.4-2.2,1.2-2.9c0.8-0.8,1.8-1.3,2.9-1.3c0.1,0,0.2,0,0.3-0.1c3.3-0.1,6.5-0.2,9.8-0.2h1.5l5,0.1c-0.3,0.6-0.6,1.2-0.8,1.8
	c-0.2,0.4-0.2,0.9-0.3,1.3c-2.6-1-7.3-1-9.9,0c2.6,1,7.2,1,9.9,0c-0.1,0.4-0.1,0.9-0.1,1.3c0.1-1.7,0.7-3.2,1.6-4.4h1.4
	c0.6,0,1.6,0,2.3-0.2c0.8-0.2,1.5-0.6,2.2-1.2c1.3-1,2-2.7,2-4.4C39.6,14.4,38.9,12.8,37.6,11.7L37.6,11.7L37.6,11.7z M10.6,22.2
	c-1.1,1-1.8,2.5-1.8,4.1s0.6,3,1.7,4.1l0.2,0.2l-4.5-0.1c-3.3,0-4.8-2-4.8-4.2c0-1.2,0.6-2.4,1.4-3.2c0.5-0.4,1-0.7,1.6-0.9
	S5.5,22,6.3,22l4.5-0.1C10.7,22.1,10.6,22.1,10.6,22.2z M26.9,10.1h-4.5c0.1-0.1,0.2-0.2,0.2-0.2c1.1-1,1.8-2.5,1.8-4.1
	s-0.6-3-1.7-4c-0.1-0.1-0.2-0.2-0.2-0.2L27,1.7c3.3,0,4.8,2.1,4.8,4.2c0,1.2-0.6,2.4-1.4,3.2c-0.5,0.4-1,0.7-1.6,0.9
	S27.7,10.1,26.9,10.1L26.9,10.1z M36.5,19.2c-0.5,0.4-1,0.7-1.6,0.9c-0.6,0.2-1.1,0.2-1.9,0.2l-4.5,0.1c0.1-0.1,0.2-0.2,0.2-0.2
	c1.1-1,1.8-2.5,1.8-4.1s-0.6-3-1.7-4.1c-0.1-0.1-0.2-0.2-0.2-0.2l4.5,0.1c0.8,0,1.3,0,1.9,0.2c0.6,0.2,1.1,0.5,1.6,0.9
	c0.9,0.8,1.4,2,1.4,3.2C38,17.2,37.4,18.4,36.5,19.2C36.5,19.2,36.5,19.2,36.5,19.2z"/>
</svg>
