<?xml version="1.0" encoding="utf-8"?>
<!-- Generator: Adobe Illustrator 21.0.0, SVG Export Plug-In . SVG Version: 6.00 Build 0)  -->
<svg version="1.1" id="Warstwa_1" xmlns="http://www.w3.org/2000/svg" xmlns:xlink="http://www.w3.org/1999/xlink" x="0px" y="0px"
	 viewBox="0 0 36.1 37.5" style="enable-background:new 0 0 36.1 37.5;" xml:space="preserve">
<style type="text/css">
	.st0{fill:#E30613;}
</style>
<g id="_x35_0">
	<path class="st0" d="M0,13.8c0.2,0.5,0.8,1.4,1.3,2.2c0.3,0.5,0.5,0.9,0.7,1.2c-0.1,0-0.2,0.1-0.3,0.1c-0.1,0-0.1,0.1-0.2,0.1
		c0,0,0,0-0.1,0c0,0-0.1,0.1-0.1,0.1c0,0,0,0.1-0.1,0.1c-0.2,0.3-0.3,0.6-0.3,1c0,0.4,0.1,0.8,0.2,1.1c0.2,0.6,0.3,1.3,0.5,1.9
		c0.2,0.7,0.1,1.3,1,1.2c1.2,4.5,2.2,8.5,3.5,12.7c0.2,0.6,0.4,1.3,0.9,1.6c0.6,0.4,1.5,0.4,2.2,0.2c1.5-0.3,2.9-0.6,4.3-1
		c7.3-1.6,14.5-3.7,21.4-6.1c0.7-0.3,1.1-1,1-1.7c-0.9-4.5-2-9.3-3.3-14.1c0,0,0.1,0,0.1,0c0.2-0.1,0.4-0.3,0.3-0.5
		c-0.2-0.7-0.3-1.4-0.5-2.1s-0.3-1.4-0.5-2.1c0-0.1-0.1-0.2-0.2-0.3c-0.1-0.1-0.2-0.1-0.3-0.1c-0.4,0.1-0.7,0.2-1.1,0.3
		c-0.1,0-0.2,0-0.3,0.1c-4.5,1.1-9.3,2.4-13.9,3.6c-2.8,0.7-5.5,1.5-8.2,2.2C15,12.5,22.6,9.1,29.2,5.5c0.3-0.2,0.6-0.5,0.6-0.9
		c0-0.1,0-0.2,0-0.3c0,0,0,0,0,0c0-0.1,0-0.1,0-0.2c-0.3-0.5-0.7-1.3-1.1-2c-0.4-0.7-0.8-1.4-1.1-1.9C27.5,0,27.2-0.1,27,0.1
		c-5,2.7-10,5-14.7,7.3c-3.9,1.9-8,3.8-12.1,5.9C0,13.3-0.1,13.6,0,13.8L0,13.8z M3.1,17.4c0-0.1,0-0.2,0-0.3c0-0.7,0.6-1.3,1.3-1.3
		c0.4,0,0.8,0.2,1.1,0.6c0.1,0.1,0.2,0.3,0.2,0.4l0,0l0,0c0,0.1,0,0.2,0,0.3c0,0.5-0.3,1-0.7,1.2c-0.2,0.1-0.4,0.1-0.6,0.1
		C3.8,18.4,3.3,18,3.1,17.4L3.1,17.4C3.1,17.4,3.1,17.4,3.1,17.4L3.1,17.4z M13.1,10.2c0.1-0.8,0.2-1.7,0.3-2.4
		c1.2-0.6,2.4-1.1,3.6-1.7c0,1.3-0.2,3.3-0.3,4.4c-1.1,0.5-2.3,1.1-3.4,1.6c-0.1,0.1-0.3,0.1-0.4,0.2C12.9,11.6,13,10.9,13.1,10.2
		L13.1,10.2z M22.2,7.8c0.1-1.4,0.1-3.1,0-4.3c1-0.5,2-1,3-1.5c0,1-0.2,2.5-0.4,4.5C23.9,6.9,23.1,7.4,22.2,7.8z M21.3,8.3
		c-1.2,0.6-2.5,1.2-3.7,1.8c0.2-1.4,0.3-3.2,0.3-4.3c0,0,0,0,0,0C19,5.1,20.2,4.6,21.3,4C21.4,5.2,21.4,6.9,21.3,8.3z M15,14.8
		c-0.4,1.3-0.8,2.6-1.3,3.8c-1.3,0.3-2.5,0.6-3.8,1c0.4-1.2,0.8-2.5,1.1-3.8C12.3,15.5,13.6,15.1,15,14.8L15,14.8z M8.9,19.8
		c-1.4,0.4-2.7,0.7-4.1,1.1L5,20.3c0.2-0.5,0.3-0.9,0.5-1.4c0.7-0.4,1.1-1.1,1.1-1.9V17c1.1-0.3,2.3-0.6,3.4-0.9
		C9.7,17.3,9.3,18.6,8.9,19.8L8.9,19.8z M3.8,21.2c-0.2,0-0.3,0.1-0.5,0.1l-0.9-3.2l0.1,0c0.4,0.7,1.1,1.2,2,1.2c0,0,0.1,0,0.1,0
		c-0.1,0.3-0.2,0.5-0.3,0.8L3.8,21.2L3.8,21.2z M6,15.5c-0.3-0.3-0.7-0.5-1.2-0.6l0.5-3.2c0.9-0.4,1.8-0.9,2.7-1.3
		c0,1.4-0.2,2.9-0.3,4.2c0,0,0,0.1,0,0.1C7.1,15,6.5,15.3,6,15.5L6,15.5L6,15.5z M35.2,28.8c0.1,0.3-0.1,0.6-0.4,0.7
		c-8.4,2.9-17,5.3-25.8,7c-0.3,0.1-0.6-0.1-0.7-0.4c-1.7-4.4-3-9.1-4-14.2c3.3-0.8,6.6-1.7,9.8-2.5l0,0c0.1,0,0.1,0,0.2-0.1
		c1.3-0.3,2.5-0.6,3.7-1c4.6-1.2,9.3-2.4,13.9-3.6C33.2,19.5,34.2,24.3,35.2,28.8L35.2,28.8z M25,12.1c-0.2,1.3-0.6,2.6-1,3.8
		c-1.3,0.4-2.7,0.7-4,1.1l1.1-3.8C22.3,12.8,23.7,12.5,25,12.1L25,12.1z M25,15.7c0.4-1.2,0.7-2.5,0.9-3.8c1.3-0.3,2.6-0.7,3.9-1
		l-1.2,3.9C27.4,15,26.2,15.3,25,15.7L25,15.7L25,15.7z M31.8,12.1c0.1,0.6,0.3,1.1,0.4,1.7c-0.9,0.2-1.7,0.4-2.6,0.6l1.2-3.9
		c0.2-0.1,0.4-0.1,0.6-0.1C31.5,11,31.6,11.6,31.8,12.1L31.8,12.1L31.8,12.1z M16.6,14.3c1.2-0.3,2.3-0.6,3.5-0.9l-1,3.7
		c0,0,0,0.1,0,0.1c-0.4,0.1-0.9,0.2-1.3,0.3c-1,0.3-2,0.5-3,0.8c0.4-1.2,0.9-2.5,1.3-3.7c0,0,0-0.1,0-0.1
		C16.2,14.4,16.4,14.4,16.6,14.3L16.6,14.3L16.6,14.3z M27.1,1c0.3,0.5,0.6,1,0.9,1.6c0.3,0.6,0.6,1.1,0.9,1.6
		c-1.1,0.6-2.1,1.2-3.2,1.8c0.2-1.5,0.4-3.3,0.4-4.4C26.4,1.4,26.7,1.2,27.1,1L27.1,1z M12.5,8.2c-0.1,0.6-0.2,1.2-0.2,1.9
		c-0.1,0.9-0.2,1.7-0.3,2.4c0,0.1,0,0.1,0,0.2c-1.2,0.5-2.3,1.1-3.5,1.6c0.1-1.3,0.2-2.7,0.3-4c0-0.1,0-0.2-0.1-0.2
		C10,9.4,11.3,8.8,12.5,8.2L12.5,8.2L12.5,8.2z M4.3,12.2l-0.4,2.7v0c-0.7,0.1-1.2,0.6-1.5,1.2c-0.1-0.2-0.2-0.4-0.3-0.5
		c-0.4-0.6-0.8-1.3-1-1.8C2.1,13.3,3.2,12.7,4.3,12.2L4.3,12.2L4.3,12.2z"/>
	<path class="st0" d="M13.8,25.8c0,3.1,2.5,5.6,5.6,5.6s5.6-2.5,5.6-5.6s-2.5-5.6-5.6-5.6S13.8,22.7,13.8,25.8z M19.4,21.1
		c2.6,0,4.7,2.1,4.7,4.7s-2.1,4.7-4.7,4.7s-4.7-2.1-4.7-4.7S16.8,21.1,19.4,21.1z"/>
	<path class="st0" d="M18.4,28.5c0.1,0.2,0.2,0.3,0.4,0.3h0c0.2,0,0.3-0.1,0.4-0.2c0.4-0.6,0.8-1.2,1.3-1.8c0.5-0.6,0.9-1.2,1.2-1.7
		c0.1-0.1,0.1-0.3,0-0.4s-0.1-0.2-0.3-0.3c-0.6-0.2-1.4-0.4-2.1-0.5c-0.7-0.2-1.4-0.3-2-0.5c-0.2-0.1-0.3,0-0.4,0.1
		s-0.2,0.3-0.1,0.4L18.4,28.5L18.4,28.5z M19.2,24.8c0.5,0.1,1,0.2,1.5,0.4c-0.2,0.4-0.5,0.7-0.8,1.1c-0.3,0.4-0.6,0.7-0.8,1.1
		l-1-2.9C18.4,24.6,18.8,24.7,19.2,24.8L19.2,24.8z"/>
	<path class="st0" d="M26,22.3c0,0,0.1,0,0.1,0c0.4,0,0.8-0.3,0.9-0.6c0.2-0.4,0.1-0.8-0.1-1.1C26.7,20.2,26.4,20,26,20
		c-0.1,0-0.1,0-0.2,0c-0.4,0.1-0.7,0.3-0.8,0.7c-0.2,0.4-0.1,0.8,0.1,1.1C25.3,22.1,25.6,22.3,26,22.3L26,22.3L26,22.3z M25.8,21
		c0-0.1,0.1-0.1,0.1-0.1c0.1,0,0.1,0,0.2,0c0,0,0,0,0,0c0,0,0.1,0.1,0.1,0.1c0.1,0.1,0.1,0.2,0,0.3s-0.1,0.1-0.2,0.1s-0.2,0-0.3-0.1
		C25.7,21.3,25.7,21.2,25.8,21L25.8,21L25.8,21z"/>
	<path class="st0" d="M29.4,21.1c0.1,0,0.2,0,0.4-0.1c0.4-0.1,0.7-0.4,0.8-0.8s0-0.8-0.3-1.1c-0.3-0.3-0.7-0.5-1.1-0.4
		c0,0-0.1,0-0.1,0.1c0,0-0.1,0-0.1,0c-0.4,0.1-0.6,0.5-0.7,0.9s0.1,0.8,0.3,1.1C28.8,21,29.1,21.1,29.4,21.1L29.4,21.1L29.4,21.1z
		 M29.3,19.6L29.3,19.6C29.3,19.6,29.3,19.6,29.3,19.6c0.2,0,0.3,0,0.3,0.1s0.1,0.2,0.1,0.3c0,0.1-0.1,0.2-0.2,0.2s-0.2,0-0.3,0
		s-0.1-0.2-0.1-0.3S29.2,19.6,29.3,19.6L29.3,19.6L29.3,19.6z"/>
	<path class="st0" d="M26.1,26.2c0,0.2,0.2,0.3,0.4,0.3c0,0,0.1,0,0.1,0c1.6-0.4,3.3-0.9,4.9-1.4c0.2-0.1,0.3-0.3,0.3-0.5
		s-0.3-0.4-0.5-0.3c-1.6,0.5-3.2,1-4.8,1.4C26.2,25.8,26,26,26.1,26.2L26.1,26.2L26.1,26.2z"/>
	<path class="st0" d="M11.7,25.1c-0.1-0.2-0.3-0.3-0.6-0.3c-1.2,0.4-2.4,0.8-3.7,1c-0.2,0-0.4,0.3-0.4,0.5c0,0.2,0.2,0.4,0.4,0.4
		c0,0,0,0,0.1,0c1.3-0.2,2.6-0.5,3.9-1C11.7,25.6,11.8,25.4,11.7,25.1L11.7,25.1L11.7,25.1z"/>
	<path class="st0" d="M11.5,30.7l-2,0.6c-0.2,0.1-0.4,0.3-0.3,0.5c0.1,0.2,0.2,0.3,0.4,0.3c0,0,0.1,0,0.1,0l2-0.6
		c0.2-0.1,0.4-0.3,0.3-0.5C12,30.8,11.7,30.6,11.5,30.7L11.5,30.7L11.5,30.7z"/>
	<path class="st0" d="M32.8,2.8c-0.2-0.1-0.5-0.1-0.6,0.1l-1.1,1.7C31,4.8,31,5.1,31.2,5.2c0.1,0.1,0.2,0.1,0.2,0.1
		c0.1,0,0.3-0.1,0.4-0.2L33,3.4C33.1,3.2,33,3,32.8,2.8L32.8,2.8L32.8,2.8z"/>
	<path class="st0" d="M32.6,7c0,0,0.1,0,0.1,0c0.8-0.3,1.5-0.6,2.2-1.1c0.2-0.1,0.2-0.4,0.1-0.6S34.6,5,34.4,5.1
		c-0.6,0.4-1.3,0.8-1.9,1c-0.2,0.1-0.3,0.3-0.3,0.6C32.2,6.8,32.4,7,32.6,7L32.6,7z"/>
	<path class="st0" d="M33.1,9l2.3,0.4c0,0,0.1,0,0.1,0c0.2,0,0.4-0.1,0.4-0.4c0-0.2-0.1-0.5-0.3-0.5l-2.3-0.4
		c-0.2-0.1-0.5,0.1-0.5,0.3C32.7,8.7,32.8,8.9,33.1,9z"/>
</g>
</svg>
