<?xml version="1.0" encoding="utf-8"?>
<!-- Generator: Adobe Illustrator 21.0.0, SVG Export Plug-In . SVG Version: 6.00 Build 0)  -->
<svg version="1.1" id="Warstwa_1" xmlns="http://www.w3.org/2000/svg" xmlns:xlink="http://www.w3.org/1999/xlink" x="0px" y="0px"
	 viewBox="0 0 35.2 35.5" style="enable-background:new 0 0 35.2 35.5;" xml:space="preserve">
<style type="text/css">
	.st0{fill:#E30613;}
</style>
<g id="_x31_89">
	<path class="st0" d="M31.1,4c0.2,0,0.1,0,2.8-1.7c0.2-0.1,0.3-0.4,0.1-0.6c-0.1-0.2-0.4-0.3-0.6-0.1l-2.5,1.6
		C30.5,3.4,30.7,4,31.1,4L31.1,4z"/>
	<path class="st0" d="M31.9,5.7l2.9-0.2c0.2,0,0.4-0.2,0.4-0.4S35,4.6,34.7,4.7l-2.9,0.2c-0.2,0-0.4,0.2-0.4,0.4
		C31.5,5.6,31.7,5.7,31.9,5.7L31.9,5.7z"/>
	<g id="_x31_891">
		<path class="st0" d="M31.1,0.1c-0.2-0.1-0.4-0.1-0.6,0.1c-0.5,0.6-0.9,1.3-1.1,2.1c-0.1,0.2,0,0.5,0.3,0.5c0.2,0.1,0.5,0,0.5-0.3
			c0.2-0.7,0.5-1.3,1-1.8C31.3,0.5,31.3,0.2,31.1,0.1L31.1,0.1z"/>
		<path class="st0" d="M1.7,24.6c0.1,0.7,0.2,1.4,0.7,1.9C2.8,27,4,27,4.7,27c3.7-0.1,7-0.2,10.2-0.1V30c-1.1,0.2-2,1-2.1,2.1H4.1
			c-0.5,0-0.6,0.7-0.1,0.8l0.5,0.5h8.3c0.1,0.4,0.2,0.7,0.4,1c0.7,0.9,1.9,1.3,3,0.9c0.8-0.3,1.4-1,1.6-1.8h8.7c0,0,0.9-0.9,0.9-0.9
			h-0.1c0.1-0.3-0.1-0.5-0.4-0.5h-9.2c0,0,0-0.1-0.1-0.2c-0.2-0.8-0.7-1.4-1.4-1.7v-3.4c12.7,0.1,13,0.2,14.4-0.2
			c0.7-0.2,0.7-1.1,0-1.3c-0.2,0-0.3-0.1-0.5-0.1c0.3-0.3,0.5-0.8,0.6-1.3l1.4-12.8c0.1-0.6-0.1-1.2-0.5-1.6
			c-0.8-0.9-1.9-0.6-2.3-0.7c0-1.1,0-3.3,0-3.2c0-1-0.8-1.9-1.9-1.9h-5.1c-0.3,0-0.6-0.1-0.8-0.4c-0.8-1-1.1-1.2-3.2-1.1
			c-1,0.1,0.8,0-13.6-0.2C4.2,2.2,3.5,2.5,3,2.9c-1,1-0.7,2.2-0.8,2.8C2.1,5.7,2,5.8,1.9,5.8C1.4,5.4,0.5,6.6,0.2,7.2
			C-0.2,8.4-0.1,8.4,1.7,24.6L1.7,24.6z M15.3,30.8c0.9,0,1.7,0.8,1.7,1.7s-0.8,1.7-1.7,1.7s-1.7-0.8-1.7-1.7
			C13.6,31.5,14.3,30.8,15.3,30.8z M30.2,9.7c0.8,0,1.4,0.7,1.3,1.4l-1.4,12.8c-0.1,0.7-0.6,1.2-1.3,1.2c-25.5,0-24.5,0-25-0.1
			c-0.4-0.2-0.8-0.6-0.8-1.1c-0.9-9.7-0.6-6.5-1.6-16.1C1.4,7.1,2,6.4,2.8,6.4c0.1,0,13.3,0,13.3,0c2.5,0,2.7,3.3,5.4,3.3
			C21.5,9.7,30.3,9.7,30.2,9.7L30.2,9.7L30.2,9.7z M4.9,3c14.2,0.2,12.6,0.2,13.6,0.2c0.6,0,1.4-0.1,1.8,0.1
			c0.2,0.1,0.5,0.5,0.7,0.7c0.3,0.4,0.9,0.7,1.4,0.7h5.1c0.6,0,1,0.5,1,1c0,0.1,0,3.3,0,3.2c-0.2,0-7.3,0-7.2,0
			c-0.6,0-1.2-0.3-1.6-0.7l-1.3-1.4c-1.1-1.2-2.5-1.1-2.5-1.1l-12.9,0l0-0.9C3.1,3.8,3.8,3,4.9,3z"/>
	</g>
</g>
</svg>
