<?xml version="1.0" encoding="utf-8"?>
<!-- Generator: Adobe Illustrator 21.0.0, SVG Export Plug-In . SVG Version: 6.00 Build 0)  -->
<svg version="1.1" id="Warstwa_1" xmlns="http://www.w3.org/2000/svg" xmlns:xlink="http://www.w3.org/1999/xlink" x="0px" y="0px"
	 viewBox="0 0 33.5 35.7" style="enable-background:new 0 0 33.5 35.7;" xml:space="preserve">
<style type="text/css">
	.st0{fill:#E30613;}
</style>
<g id="_x38_6">
	<path class="st0" d="M13.1,9.6H14l-0.7,1.1c-0.2,0.4-0.2,0.9,0.2,1.2l0.4,0.3c0.4,0.3,1,0.2,1.3-0.2l0.9-1.5l0.9,1.5
		c0.1,0.2,0.3,0.4,0.6,0.4c0.5,0.1,0.8-0.3,1-0.5c0.3-0.3,0.4-0.8,0.2-1.2l-0.7-1.2h1.2c0.5,0,0.9-0.4,0.9-0.9V8.1
		c0-0.5-0.4-0.9-0.9-0.9h-1.1l0.6-1c0.2-0.4,0.2-0.9-0.2-1.2l-0.4-0.3c-0.4-0.3-1-0.2-1.3,0.2l-0.8,1.4l-0.9-1.2
		c-0.1-0.2-0.3-0.3-0.6-0.4c-0.5-0.1-0.7,0.3-1,0.5c-0.4,0.3-0.4,0.8-0.2,1.2l0.6,0.8h-0.9c-0.5,0-0.9,0.4-0.9,0.9v0.6
		C12.3,9.2,12.7,9.6,13.1,9.6L13.1,9.6z"/>
	<path class="st0" d="M0,26.6C0,26.8,0.2,27,0.4,27h0c0.1,0.2,0.3,0.4,0.4,0.5l8.6,0l0.3-0.4c0.2,0,0.4-0.2,0.4-0.4
		c0-2.9-2.5-4.7-5.2-4.6C2.2,22.1-0.1,24.2,0,26.6L0,26.6z M5,22.9c2-0.1,4.1,1.2,4.3,3.4l-8.5-0.1C1,24.4,2.8,23,5,22.9L5,22.9z"/>
	<path class="st0" d="M25.6,35c0.1,0,0.3,0.1,0.5-0.2c0.1-0.1,0.1-0.3,0-0.4c-3.7-9.3-15-8.1-19.7-0.1c-0.2,0.3,0,0.6,0.4,0.6h0.1
		c0.2,0.3,0.3,0.5,0.5,0.7h17.6L25.6,35L25.6,35z M23.8,31.9c0.5,0.6,1,1.4,1.3,2.2H7.6C11.9,27.7,20.1,27.1,23.8,31.9z"/>
	<path class="st0" d="M30.6,19.1c0-1.3-1-2.3-2.2-2.3s-2.3,1-2.3,2.2c0,1.3,1,2.3,2.2,2.3C29.6,21.4,30.6,20.4,30.6,19.1z"/>
	<path class="st0" d="M33.1,27.1c0.2,0,0.4-0.2,0.4-0.4c0-2.9-2.5-4.7-5.2-4.6c-2.8,0.1-5.1,2.1-5,4.5c0,0.2,0.2,0.4,0.4,0.4h0
		c0.2,0.2,0.3,0.4,0.5,0.5l8.6,0L33.1,27.1L33.1,27.1z M24.1,26.2c0.2-1.8,2-3.2,4.2-3.3c2-0.1,4.1,1.2,4.3,3.4L24.1,26.2L24.1,26.2
		z"/>
	<path class="st0" d="M5.2,16.8c-1.3,0-2.3,1-2.3,2.2c0,1.3,1,2.3,2.2,2.3c1.3,0,2.3-1,2.3-2.2S6.5,16.9,5.2,16.8z"/>
	<path class="st0" d="M12,16.6c-0.2,0.6-0.3,1.3-0.2,2.3c-0.6,0.1-1,0.7-0.9,1.4c0.1,0.7,0.7,1.3,1.2,1.4c0.6,4.6,4.2,6.2,7,4.5
		c1.4-0.9,1.9-2.8,2.1-4.3c1.5-0.2,1.5-2.2,0.7-2.8c0.4-1.3,0.3-2.8-0.6-4.1c2-1.6,3.2-4.1,3.2-6.6c0-4.8-4-8.7-8.9-8.5
		C13.1,0,10.5,1.1,8.8,3.2c-1.7,2.1-2.4,5.1-1.7,7.7C7.8,13.4,9.6,15.5,12,16.6L12,16.6z M19.9,23.9c-0.5,1.1-1.3,1.9-2.2,2.2
		c-1.4,0.4-3-0.5-3.7-1.6c-0.7-1-1-2.2-1.1-3.9c1.8,0.1,4.6-1.2,5.9-2.9c0.3,1.1,0.8,2.2,1.7,2.9c0,0,0,0.1,0,0.1
		C20.5,21.7,20.3,22.8,19.9,23.9L19.9,23.9z M20.9,19.8c-0.9-0.7-1.3-2.1-1.5-3.4c-0.1-0.4-0.7-0.5-0.8-0.1
		c-0.5,1.8-3.9,3.6-5.8,3.4c-0.2-0.8-0.3-1.5-0.2-2.1c0.1-0.8,0.4-1.5,0.9-2c0.5-0.5,1.3-0.6,1.9-0.4c0.2,0.1,0.4,0,0.5-0.1
		c0.8-0.9,2.2-1.2,3.2-0.8C21.2,15,21.9,17.7,20.9,19.8L20.9,19.8z M16.2,0.8c4.2,0,7.7,3.4,7.7,7.6c0,2.3-1.1,4.6-2.9,6
		c-0.4-0.4-0.9-0.8-1.5-1c-1.3-0.5-3-0.1-4,0.9c-0.8-0.2-1.8,0-2.5,0.6c-0.1,0.1-0.2,0.2-0.3,0.3c-2.5-1.3-4.2-3.9-4.2-6.8
		C8.5,4.3,12,0.8,16.2,0.8L16.2,0.8z"/>
</g>
</svg>
