<?xml version="1.0" encoding="utf-8"?>
<!-- Generator: Adobe Illustrator 21.0.0, SVG Export Plug-In . SVG Version: 6.00 Build 0)  -->
<svg version="1.1" id="Warstwa_1" xmlns="http://www.w3.org/2000/svg" xmlns:xlink="http://www.w3.org/1999/xlink" x="0px" y="0px"
	 viewBox="0 0 39.4 39.5" style="enable-background:new 0 0 39.4 39.5;" xml:space="preserve">
<style type="text/css">
	.st0{fill:#E30613;}
</style>
<g id="_x33_0">
	<path class="st0" d="M25.7,5.7c-0.1-0.9-0.1-0.6-0.4-1c0,0,0,0,0,0C25.1,4.4,25,4.5,22.2,4c-1.7-3.1-1.5-3.3-1.8-3.5
		C19.9,0.2,19.5,0.1,19,0c0,0,0,0,0,0c-0.2,0-0.4,0.1-0.5,0.2l-1.8,3.6l-4,0.6c-0.2,0-0.3,0.1-0.4,0.3c0,0.2,0,0.4,0.1,0.5L15.3,8
		l-0.7,4c-0.1,0.4,0.3,0.7,0.7,0.5l3.6-1.9c3.3,1.7,3.6,2,3.8,1.9l0,0l0,0c0,0,0,0,0,0c0,0,0,0,0,0c0,0,0,0,0,0
		c0.6-0.4,1.1-0.8,1-1.4l-0.4-2.7c0.6-0.7,1.3-1.4,2-1.9C25.6,6.3,25.7,6,25.7,5.7L25.7,5.7z M21.6,7.5c-0.1,0.1-0.2,0.3-0.1,0.4
		l0.5,3.3c-3-1.6-3-1.7-3.4-1.6l-3,1.5l0.6-3.3c0-0.1,0-0.3-0.1-0.4l-2.4-2.3l3.3-0.5c0.2,0,0.3-0.1,0.3-0.3l1.5-3l1.5,3
		c0.1,0.1,0.2,0.2,0.3,0.3L24,5.2L21.6,7.5L21.6,7.5z"/>
	<path class="st0" d="M38.7,21.4c0.2-0.1,0.3-0.4,0.2-0.6c-0.1-0.7-0.1-0.8-0.2-0.8c-0.1-0.1-0.2-0.2-0.3-0.3l-2.4-0.4
		c-1.2-2.3-1.1-2.4-1.4-2.6c-0.3-0.2-0.8-0.6-1-0.5c-0.2,0-0.4,0.1-0.4,0.3l-1.4,2.8l-3,0.4c-0.4,0.1-0.5,0.5-0.3,0.8l2.2,2.2
		l-0.5,3c-0.1,0.4,0.3,0.7,0.7,0.5l2.7-1.4c2.9,1.5,2.8,1.6,3.1,1.4c0,0,0,0,0,0c0.5-0.3,0.8-0.6,0.7-1.1L37.2,23c0,0,0,0,0,0
		C37.7,22.4,38.2,21.9,38.7,21.4L38.7,21.4z M33.6,23.8c-0.2,0-0.1,0-2.3,1.2l0.4-2.4c0-0.1,0-0.3-0.1-0.4l-1.7-1.7l2.4-0.3
		c0.2,0,0.3-0.1,0.3-0.3l1.1-2.1l1,2.2c0.1,0.1,0.2,0.2,0.3,0.3l2.4,0.4l-1.7,1.7c-0.1,0.1-0.2,0.3-0.1,0.4l0.4,2.4
		C33.7,23.8,33.8,23.8,33.6,23.8L33.6,23.8z"/>
	<path class="st0" d="M4.8,13.3l-1.4,2.8l-3,0.4c-0.4,0-0.5,0.5-0.3,0.8l2.2,2.2l-0.5,3c-0.1,0.4,0.3,0.7,0.7,0.5l2.7-1.4
		C8.1,23,7.9,23,8.1,23c0.1,0,0.2,0,0.3-0.1l0,0c0,0,0.1,0,0.2-0.1c0.2-0.2,0.5-0.8,0.4-1.1l-0.3-2.1c0.5-0.5,1-1,1.6-1.5
		c0.2-0.1,0.3-0.4,0.2-0.6c0-0.1,0-0.6-0.1-0.7c0-0.1,0-0.1-0.1-0.1c-0.1-0.1-0.2-0.2-0.3-0.3l-2.3-0.4c-1.3-2.4-1.1-2.5-1.4-2.6
		C6,13.3,5.6,13.1,5.2,13c0,0,0,0,0,0C5.1,13.1,4.9,13.2,4.8,13.3L4.8,13.3z M7.3,19c-0.1,0.1-0.2,0.3-0.1,0.4l0.4,2.4
		c-2.1-1.1-2.2-1.3-2.5-1.1l-2.1,1.1l0.4-2.4c0-0.1,0-0.3-0.1-0.4l-1.7-1.7l2.4-0.3c0.2,0,0.3-0.1,0.3-0.3l1.1-2.1l1,2.2
		c0.1,0.1,0.2,0.2,0.3,0.3L9,17.3L7.3,19L7.3,19z"/>
	<path class="st0" d="M0.4,25.1c-0.2,0-0.4,0.2-0.4,0.5c0.2,13.4-0.2,13.4,0.1,13.8c0.2,0.2,37.8,0.2,37.9,0.1v0l0.9-0.3
		c0.2-0.1,0.4-0.3,0.4-0.5l0-7.9c0-0.2-0.1-0.4-0.3-0.5l-1-0.7v0c0,0-0.1,0-0.2,0c-4.6-0.2-8.2-0.2-11.2-0.1V17
		c-0.1-0.1-1.2-1.2-1.1-1.1v0c-0.1,0-0.1-0.1-0.2-0.1c-5.3-0.5-9.3-0.5-12.5,0c-0.2,0-0.4,0.2-0.4,0.5c0,3,0.1,5.9,0.1,8.7
		C7.4,24.8,3.6,24.8,0.4,25.1L0.4,25.1z M37.5,30.4c0.1,2.7,0.1,5.4,0,8.1H26.7v-8.1C29.6,30.3,33.1,30.3,37.5,30.4z M24.9,16.7
		c0.2,7.8-0.1,15.1,0,21.8H13.4c0.1-3.8,0.1-15.2,0-21.8C16.4,16.3,20.1,16.3,24.9,16.7z M11.3,25.9v12.6H0.9
		c0.1-4.1,0.1-8.3,0-12.6C3.7,25.7,7.1,25.7,11.3,25.9z"/>
	<path class="st0" d="M16.9,29.8c0.1,0,4.5-0.1,4.4-0.1c0.6,0,0.6-0.9,0-0.9l-1.6,0V22c0-0.4-0.5-0.6-0.8-0.4l-2.2,1.9
		c-0.2,0.2-0.2,0.4,0,0.6c0.2,0.2,0.5,0.2,0.6,0.1l1.5-1.3v5.9l-1.9,0c-0.3,0-0.5,0.2-0.5,0.5S16.7,29.8,16.9,29.8z"/>
</g>
</svg>
