<?xml version="1.0" encoding="utf-8"?>
<!-- Generator: Adobe Illustrator 21.0.0, SVG Export Plug-In . SVG Version: 6.00 Build 0)  -->
<svg version="1.1" id="Warstwa_1" xmlns="http://www.w3.org/2000/svg" xmlns:xlink="http://www.w3.org/1999/xlink" x="0px" y="0px"
	 viewBox="0 0 26.3 33.1" style="enable-background:new 0 0 26.3 33.1;" xml:space="preserve">
<style type="text/css">
	.st0{fill:#E30613;}
</style>
<g id="_x31_20">
	<path class="st0" d="M1.5,9C3,7,4.7,5.5,6.7,4.4c0.6-0.3,1.4-0.5,2.2-0.6c0.8,0,1.6,0.3,2,0.8C11,4.8,11,5,11,5.1
		c0.3,0.1,0.6,0.4,0.7,0.7c0.5,0.2,0.9,0.6,1,1.2c0.6,0.1,1.1,0.6,1.2,1.3C14.5,8.4,15,9,15.2,9.7c0.6,0.1,1,0.6,1.1,1.2
		c0,0.1,0,0.2-0.1,0.3c0,0,0.1,0,0.1,0.1c0.3,0.2,0.8,0.5,0.9,1.3c0.1,0.8-0.2,1.5-0.5,2c-0.4,0.8-0.8,1.5-1.4,2.1
		c2.6,4,6.4,6.8,9.4,10.4c0.5,0.6,1.1,1.4,1.3,2.3c0.2,0.7,0.1,1.7-0.4,2.3c0.1-0.1,0.2-0.1,0.2-0.2c-0.3,0.5-1,1.2-1.5,1.4
		c-0.7,0.2-1.5,0.1-2.2-0.2c-0.7-0.3-1.2-0.8-1.8-1.3c-2-1.9-3.5-4.2-4.7-6.6c-1.1-2.2-2.4-3.5-3.7-4.7c-0.5,0.2-0.8,0.5-1.3,0.7
		c-0.7,0.3-1.4,0.6-2.1,0.6c-1.2,0.1-2.6-0.6-3-1.8c-0.6,0.1-1.1-0.6-1-1.2c0,0.1-0.5-0.1-0.5-0.1c-0.2-0.1-0.3-0.3-0.4-0.4
		c-0.1-0.1,0-0.4-0.1-0.5c0-0.1-0.2,0-0.3,0C3,17.3,2.9,16.9,3,16.6c-0.4,0.1-0.8-0.2-0.8-0.6c0-0.1,0.1-0.3,0-0.3
		c0-0.1-0.2,0-0.3-0.1c-0.3-0.1-0.6-0.5-0.5-0.9c0,0.1-0.5-0.3-0.5-0.4c-0.1-0.2-0.1-0.4,0-0.6c-0.1,0.1-0.5-0.3-0.6-0.4
		c-0.7-1-0.3-2.1,0.4-3.1C1,9.8,1.2,9.3,1.5,9L1.5,9L1.5,9z M8.9,4.6C8.3,4.6,7.5,4.8,7,5.1c-1.9,1-3.5,2.4-5,4.3
		C1.7,9.8,1.4,10.4,1.3,11c-0.1,0.4-0.2,0.8-0.1,1.2c1-1.3,2.3-2.8,3.9-4.2c1.7-1.5,3.4-2.5,5.2-3C9.9,4.7,9.4,4.6,8.9,4.6L8.9,4.6
		L8.9,4.6z M14.8,10.4c-0.2,0-0.3-0.2-0.3-0.3c0-0.6-0.5-1.2-1.1-1.3c-0.2,0-0.3-0.2-0.3-0.4c0-0.4-0.4-0.9-0.8-0.8
		c-0.3,0-0.4-0.2-0.4-0.4c0.1-0.3-0.2-0.8-0.6-0.8C11.1,6.4,11,6.2,11,6c0-0.2-0.2-0.3-0.3-0.3c-0.1,0-0.1,0-0.2,0c0,0,0,0,0,0
		C8.8,6.1,7.1,7,5.5,8.5c-2.9,2.7-3.8,4.2-4.1,4.4v0c0,0.1,0.1,0.2,0.2,0.2c0.3-0.1,0.5,0.2,0.4,0.4c-0.1,0.3,0.2,0.6,0.5,0.6
		c0.3,0,0.5,0.2,0.4,0.4c-0.1,0.3,0.2,0.8,0.6,0.8c0.2,0,0.4,0.2,0.3,0.4c-0.1,0.3,0.3,0.8,0.7,0.7C4.7,16.5,5,16.8,4.9,17
		c-0.1,0.3,0.2,0.7,0.6,0.7c0.3,0,0.4,0.3,0.3,0.5c0,0.1,0,0.2,0,0.3s0.2,0.1,0.3,0.1c0.2-0.1,0.4,0,0.5,0.2
		c0.1-0.3,0.2-0.6,0.4-0.8c1.6-2.7,3.8-4.8,6.7-6.4c0.5-0.3,1.3-0.5,1.9-0.5C15.5,10.7,15.2,10.4,14.8,10.4L14.8,10.4L14.8,10.4z
		 M16.5,12.7c-0.1-0.4-0.2-0.7-0.5-0.8c-0.5-0.3-1.5-0.1-2,0.3c-2.8,1.5-5,3.5-6.5,6.1c-0.2,0.3-0.4,0.8-0.3,1.1
		c0,0.3,0.3,0.6,0.6,0.8c0.9,0.6,1.9,0.1,3.4-0.9c-1.2-1-1.4-1.3-1.5-1.6c-0.1-0.6,0.5-1.3,1-1.7c0.7-0.8,1.5-1.5,2.6-1.7
		c0.4-0.1,0.8,0.1,1,0.5c0.2,0.4,0.4,0.9,0.7,1.3c0.5-0.6,0.8-1.2,1.2-1.8C16.4,13.9,16.6,13.3,16.5,12.7L16.5,12.7L16.5,12.7z
		 M25.5,29.6c-0.2-0.8-0.7-1.4-1.2-2c-3.5-4.2-8.2-7.4-10.6-12.5c0-0.1-0.1-0.1-0.2-0.1c-0.5,0.1-1,0.4-1.5,0.8
		c-0.4,0.4-1,0.9-1.3,1.4c-0.1,0.1,0,0.2,0,0.3c2.2,1.6,4.2,4.2,5.7,6.4c1.3,2,4.5,7.1,6.8,7.9c0.6,0.2,1.3,0.1,1.7-0.2
		C25.6,31.1,25.7,30.3,25.5,29.6L25.5,29.6L25.5,29.6z"/>
	<path class="st0" d="M12.9,11.2L12.9,11.2c-0.3-0.1-0.4-0.3-0.3-0.4c0.1-0.4,0.8-0.3,0.7,0.2C13.3,11.1,13.1,11.2,12.9,11.2z"/>
	<path class="st0" d="M10.6,12l-0.1,0.3L10.6,12c0.2,0.1,0.3,0.3,0.2,0.5c-0.1,0.2-0.2,0.3-0.4,0.2c0,0,0,0-0.1,0l0.1-0.3L10.6,12
		L10.6,12z"/>
	<path class="st0" d="M8.4,13.9L8.4,13.9c0.2,0.1,0.3,0.2,0.3,0.4s-0.3,0.3-0.4,0.3S8,14.3,8,14.2C8.1,14,8.3,13.8,8.4,13.9
		L8.4,13.9z"/>
	<path class="st0" d="M6.5,16.9c-0.2,0-0.3-0.2-0.3-0.4v0c0-0.2,0.2-0.3,0.4-0.2s0.3,0.3,0.3,0.4S6.6,16.9,6.5,16.9z"/>
	<path class="st0" d="M11.4,9.1L11.4,9.1c-0.3-0.1-0.4-0.3-0.3-0.4s0.2-0.3,0.4-0.3l0.1,0c0.2,0,0.3,0.2,0.3,0.4S11.6,9.1,11.4,9.1z
		"/>
	<path class="st0" d="M9.5,10.2c0.2,0.3,0,0.7-0.4,0.6h0c-0.3-0.1-0.3-0.5-0.1-0.7C9.1,10,9.4,10,9.5,10.2z"/>
	<path class="st0" d="M7,12.4L7,12.4c-0.1,0.3-0.3,0.4-0.4,0.3s-0.3-0.2-0.3-0.4l0-0.1c0-0.2,0.2-0.3,0.4-0.3S7,12.2,7,12.4z"/>
	<path class="st0" d="M4.3,14.8L4.3,14.8c-0.1-0.2-0.1-0.5,0.1-0.6s0.4-0.1,0.5,0.1l0,0.1c0.1,0.2,0,0.4-0.1,0.5
		C4.6,15,4.4,14.9,4.3,14.8z"/>
	<path class="st0" d="M10.2,7.2c-0.2,0-0.2,0-0.3,0c-0.4-0.1-0.3-0.7,0-0.7l0.2,0c0.2,0,0.4,0.1,0.4,0.3C10.6,7,10.4,7.2,10.2,7.2
		L10.2,7.2L10.2,7.2z"/>
	<path class="st0" d="M7.3,8.9L7.3,8.9l0.2-0.3l0.3-0.2l0,0.1C8,8.7,7.9,8.9,7.8,9C7.6,9.1,7.4,9.1,7.3,8.9L7.3,8.9L7.3,8.9z"/>
	<path class="st0" d="M4.9,11c-0.2,0-0.3-0.3-0.3-0.4s0.2-0.3,0.4-0.3C5.5,10.4,5.3,11.1,4.9,11z"/>
	<path class="st0" d="M2.8,13.3c-0.2,0-0.3-0.2-0.3-0.4l0-0.1c0-0.2,0.2-0.3,0.4-0.3s0.3,0.2,0.3,0.4l0,0.1
		C3.2,13.2,3,13.3,2.8,13.3z"/>
	<path class="st0" d="M13.9,2.8C14,2.9,14,3.1,13.8,3.2l-1.6,1.2c-0.1,0.1-0.2,0.1-0.3,0.1c-0.3-0.1-0.4-0.5-0.1-0.6l1.6-1.2
		C13.6,2.6,13.8,2.6,13.9,2.8L13.9,2.8z"/>
	<path class="st0" d="M11.5,0c0.2,0,0.3,0.2,0.2,0.4L11,3.2c0,0.2-0.2,0.3-0.4,0.2h0c-0.2,0-0.3-0.3-0.2-0.4l0.8-2.7
		C11.2,0.1,11.4,0,11.5,0L11.5,0z"/>
	<path class="st0" d="M8.8,1.3l0.5,1.5C9.5,3,9.2,3.2,9,3.2C8.9,3.1,8.8,3.1,8.7,3L8.2,1.5c-0.1-0.2,0-0.4,0.2-0.5S8.8,1.1,8.8,1.3
		L8.8,1.3L8.8,1.3z"/>
</g>
</svg>
