<?xml version="1.0" encoding="utf-8"?>
<!-- Generator: Adobe Illustrator 21.0.0, SVG Export Plug-In . SVG Version: 6.00 Build 0)  -->
<svg version="1.1" id="Warstwa_1" xmlns="http://www.w3.org/2000/svg" xmlns:xlink="http://www.w3.org/1999/xlink" x="0px" y="0px"
	 viewBox="0 0 311.6 145.7" style="enable-background:new 0 0 311.6 145.7;" xml:space="preserve">
<style type="text/css">
	.st0{fill:url(#SVGID_1_);stroke:#355363;stroke-miterlimit:10;}
	.st1{fill:#E3DD07;}
	.st2{fill:#348E4A;}
	.st3{clip-path:url(#SVGID_3_);}
	.st4{fill:none;stroke:#355363;stroke-miterlimit:10;}
	.st5{fill:#8E343A;}
	.st6{fill:#E30613;}
	.st7{opacity:0.2;fill:#8E343A;enable-background:new    ;}
	.st8{fill:#FFFFFF;}
	.st9{fill:none;stroke:#0796E3;stroke-miterlimit:10;}
	.st10{opacity:0.5;fill:none;stroke:#0796E3;stroke-miterlimit:10;enable-background:new    ;}
	.st11{fill:#1D1D1B;}
	.st12{fill:none;stroke:#8E343A;stroke-miterlimit:10;}
	.st13{fill:#0796E3;}
	.st14{fill:none;stroke:#FFFFFF;stroke-miterlimit:10;}
	.st15{fill:none;stroke:#FFFFFF;stroke-linecap:round;stroke-miterlimit:10;}
	.st16{fill:none;stroke:#E30613;stroke-miterlimit:10;}
	.st17{fill:#355363;}
	.st18{fill:none;stroke:#8E343A;stroke-width:3;stroke-miterlimit:10;}
	.st19{fill:url(#SVGID_4_);}
	.st20{fill:url(#SVGID_5_);}
	.st21{fill:url(#SVGID_6_);}
	.st22{fill:url(#SVGID_7_);}
	.st23{fill:url(#SVGID_8_);}
	.st24{fill:url(#SVGID_9_);}
	.st25{fill:url(#SVGID_10_);}
	.st26{fill:url(#SVGID_11_);}
	.st27{fill:url(#SVGID_12_);}
	.st28{fill:url(#SVGID_13_);}
	.st29{fill:url(#SVGID_14_);}
	.st30{fill:url(#SVGID_15_);}
	.st31{fill:url(#SVGID_16_);}
	.st32{fill:url(#SVGID_17_);}
	.st33{fill:url(#SVGID_18_);}
	.st34{fill:url(#SVGID_19_);}
	.st35{fill:url(#SVGID_20_);}
	.st36{fill:url(#SVGID_21_);}
	.st37{fill:url(#SVGID_22_);}
	.st38{fill:url(#SVGID_23_);}
	.st39{fill:url(#SVGID_24_);}
	.st40{fill:url(#SVGID_25_);}
	.st41{fill:url(#SVGID_26_);}
	.st42{fill:url(#SVGID_27_);}
	.st43{fill:url(#SVGID_28_);}
	.st44{fill:url(#SVGID_29_);}
	.st45{fill:url(#SVGID_30_);}
	.st46{fill:url(#SVGID_31_);}
	.st47{fill:url(#SVGID_32_);}
	.st48{fill:url(#SVGID_33_);}
	.st49{fill:url(#SVGID_34_);}
	.st50{fill:url(#SVGID_35_);}
	.st51{fill:url(#SVGID_36_);}
	.st52{fill:url(#SVGID_37_);}
	.st53{fill:url(#SVGID_38_);}
	.st54{fill:url(#SVGID_39_);}
	.st55{fill:url(#SVGID_40_);}
	.st56{fill:url(#SVGID_41_);}
	.st57{fill:url(#SVGID_42_);}
	.st58{fill:url(#SVGID_43_);}
	.st59{fill:url(#SVGID_44_);}
	.st60{fill:url(#SVGID_45_);}
	.st61{fill:url(#SVGID_46_);}
	.st62{fill:url(#SVGID_47_);}
	.st63{fill:url(#SVGID_48_);}
	.st64{fill:url(#SVGID_49_);}
	.st65{fill:url(#SVGID_50_);}
	.st66{fill:url(#SVGID_51_);}
	.st67{fill:url(#SVGID_52_);}
	.st68{fill:url(#SVGID_53_);}
	.st69{fill:url(#SVGID_54_);}
	.st70{fill:url(#SVGID_55_);}
	.st71{fill:url(#SVGID_56_);}
	.st72{fill:url(#SVGID_57_);}
	.st73{fill:url(#SVGID_58_);}
	.st74{fill:url(#SVGID_59_);}
	.st75{fill:url(#SVGID_60_);}
	.st76{fill:url(#SVGID_61_);}
	.st77{fill:url(#SVGID_62_);}
	.st78{fill:url(#SVGID_63_);}
	.st79{fill:url(#SVGID_64_);}
	.st80{fill:url(#SVGID_65_);}
	.st81{fill:url(#SVGID_66_);}
	.st82{fill:url(#SVGID_67_);}
	.st83{fill:url(#SVGID_68_);}
	.st84{fill:url(#SVGID_69_);}
	.st85{fill:url(#SVGID_70_);}
	.st86{fill:url(#SVGID_71_);}
	.st87{fill:url(#SVGID_72_);}
	.st88{fill:url(#SVGID_73_);}
	.st89{fill:none;stroke:#1D1D1B;stroke-width:0.25;stroke-miterlimit:10;}
	.st90{fill:none;}
	.st91{fill:#111114;}
</style>
<rect y="48.1" class="st6" width="224.6" height="55.9"/>
<g>
	<path d="M106.1,2.3c2.1-0.4,4.9-0.7,8.5-0.7c4.4,0,7.6,1,9.6,2.8c1.9,1.6,3,4.1,3,7.2s-0.9,5.5-2.6,7.3c-2.3,2.5-6.2,3.8-10.5,3.8
		c-1.3,0-2.6-0.1-3.6-0.3v13.8h-4.4L106.1,2.3L106.1,2.3z M110.6,18.8c1,0.3,2.2,0.4,3.7,0.4c5.4,0,8.6-2.6,8.6-7.3
		s-3.2-6.7-8.1-6.7c-1.9,0-3.4,0.2-4.2,0.4V18.8L110.6,18.8z"/>
	<path d="M154.1,23.6c0,9.1-6.3,13.1-12.3,13.1c-6.7,0-11.8-4.9-11.8-12.7c0-8.3,5.4-13.1,12.2-13.1S154.1,16.1,154.1,23.6z
		 M134.6,23.9c0,5.4,3.1,9.5,7.5,9.5s7.5-4,7.5-9.6c0-4.2-2.1-9.5-7.4-9.5S134.5,19.2,134.6,23.9L134.6,23.9z"/>
	<path d="M159.8,19.2c0-2.9-0.1-5.4-0.2-7.7h3.9l0.1,4.8h0.2c1.1-3.3,3.8-5.4,6.8-5.4c0.5,0,0.9,0,1.3,0.2v4.2
		c-0.5-0.1-0.9-0.2-1.5-0.2c-3.2,0-5.4,2.4-6,5.7c-0.1,0.6-0.2,1.3-0.2,2.1v13.1h-4.4L159.8,19.2L159.8,19.2z"/>
	<path d="M183,4.4v7.1h6.4v3.4H183v13.3c0,3.1,0.9,4.8,3.4,4.8c1.2,0,2-0.2,2.6-0.3l0.2,3.4c-0.9,0.4-2.2,0.6-4,0.6
		c-2.1,0-3.8-0.7-4.8-1.9c-1.3-1.3-1.7-3.5-1.7-6.4V14.9h-3.8v-3.4h3.8V5.6L183,4.4L183,4.4z"/>
	<path d="M208.1,36.2l-0.4-3.1h-0.1c-1.4,1.9-4,3.7-7.5,3.7c-5,0-7.5-3.5-7.5-7.1c0-6,5.3-9.2,14.8-9.2V20c0-2-0.6-5.7-5.6-5.7
		c-2.3,0-4.7,0.7-6.4,1.8l-1-3c2-1.3,5-2.2,8.1-2.2c7.5,0,9.4,5.1,9.4,10.1v9.2c0,2.1,0.1,4.2,0.4,5.9
		C212.2,36.2,208.1,36.2,208.1,36.2z M207.5,23.6c-4.9-0.1-10.4,0.8-10.4,5.6c0,2.9,1.9,4.3,4.2,4.3c3.2,0,5.2-2,6-4.1
		c0.1-0.5,0.3-1,0.3-1.4V23.6z"/>
	<path d="M219,0h4.5v36.2H219C219,36.2,219,0,219,0z"/>
</g>
<g>
	<path d="M8.2,125l1.9,7.4c0.4,1.6,0.8,3.1,1.1,4.6h0.1c0.3-1.5,0.8-3,1.3-4.6L15,125h2.2l2.2,7.2c0.5,1.7,1,3.3,1.3,4.7h0.1
		c0.2-1.5,0.6-3,1.1-4.7L24,125h2.6l-4.7,14.5h-2.4l-2.2-6.9c-0.5-1.6-0.9-3.1-1.3-4.8H16c-0.4,1.7-0.8,3.2-1.3,4.8l-2.3,6.9H9.9
		L5.6,125H8.2L8.2,125z"/>
	<path d="M30.6,125l1.9,7.4c0.4,1.6,0.8,3.1,1.1,4.6h0.1c0.3-1.5,0.8-3,1.3-4.6l2.4-7.4h2.2l2.2,7.2c0.5,1.7,1,3.3,1.3,4.7h0.1
		c0.2-1.5,0.6-3,1.1-4.7l2.1-7.3h2.6l-4.7,14.5h-2.4l-2.2-6.9c-0.5-1.6-0.9-3.1-1.3-4.8h-0.1c-0.4,1.7-0.8,3.2-1.3,4.8l-2.3,6.9
		h-2.4L27.9,125H30.6L30.6,125z"/>
	<path d="M52.9,125l1.9,7.4c0.4,1.6,0.8,3.1,1.1,4.6H56c0.3-1.5,0.8-3,1.3-4.6l2.4-7.4h2.2l2.2,7.2c0.5,1.7,1,3.3,1.3,4.7h0.1
		c0.2-1.5,0.6-3,1.1-4.7l2.1-7.3h2.6l-4.7,14.5h-2.4l-2.2-6.9c-0.5-1.6-0.9-3.1-1.3-4.8h-0.1c-0.4,1.7-0.8,3.2-1.3,4.8l-2.3,6.9
		h-2.4L50.3,125H52.9L52.9,125z"/>
	<path d="M72.1,137.9c0-1.1,0.8-1.9,1.8-1.9c1,0,1.8,0.8,1.8,1.9s-0.7,1.9-1.8,1.9C72.8,139.8,72.1,139,72.1,137.9z"/>
	<path d="M78.9,129.7c0-1.9-0.1-3.4-0.1-4.7h2.4l0.1,2.5h0.1c1.1-1.8,2.8-2.8,5.1-2.8c3.5,0,6.1,3,6.1,7.4c0,5.2-3.2,7.8-6.6,7.8
		c-1.9,0-3.6-0.8-4.4-2.3h-0.1v7.9h-2.6V129.7z M81.5,133.6c0,0.4,0.1,0.8,0.1,1.1c0.5,1.8,2.1,3.1,3.9,3.1c2.8,0,4.4-2.3,4.4-5.6
		c0-2.9-1.5-5.4-4.3-5.4c-1.8,0-3.5,1.3-4,3.3c-0.1,0.3-0.2,0.7-0.2,1.1V133.6L81.5,133.6z"/>
	<path d="M109,132.1c0,5.4-3.7,7.7-7.2,7.7c-3.9,0-6.9-2.9-6.9-7.4c0-4.8,3.2-7.7,7.2-7.7S109,127.7,109,132.1L109,132.1z
		 M97.5,132.2c0,3.2,1.8,5.6,4.4,5.6s4.4-2.4,4.4-5.6c0-2.4-1.2-5.6-4.3-5.6S97.5,129.5,97.5,132.2z"/>
	<path d="M112.3,129.5c0-1.7,0-3.2-0.1-4.5h2.3l0.1,2.8h0.1c0.7-1.9,2.2-3.2,4-3.2c0.3,0,0.5,0,0.8,0.1v2.5
		c-0.3-0.1-0.5-0.1-0.9-0.1c-1.9,0-3.2,1.4-3.5,3.4c-0.1,0.4-0.1,0.8-0.1,1.2v7.7h-2.6L112.3,129.5L112.3,129.5z"/>
	<path d="M126,120.8v4.1h3.8v2H126v7.8c0,1.8,0.5,2.8,2,2.8c0.7,0,1.2-0.1,1.5-0.2l0.1,2c-0.5,0.2-1.3,0.4-2.3,0.4
		c-1.2,0-2.2-0.4-2.8-1.1c-0.8-0.8-1-2.1-1-3.8V127h-2.2v-2h2.2v-3.5L126,120.8L126,120.8z"/>
	<path d="M140.7,139.4l-0.2-1.8h-0.1c-0.8,1.1-2.4,2.1-4.4,2.1c-2.9,0-4.4-2.1-4.4-4.1c0-3.5,3.1-5.4,8.7-5.4v-0.3
		c0-1.2-0.3-3.4-3.3-3.4c-1.3,0-2.8,0.4-3.8,1.1l-0.6-1.7c1.2-0.8,2.9-1.3,4.8-1.3c4.4,0,5.5,3,5.5,5.9v5.4c0,1.3,0.1,2.5,0.2,3.5
		L140.7,139.4L140.7,139.4z M140.3,132.1c-2.9-0.1-6.1,0.4-6.1,3.3c0,1.7,1.1,2.5,2.5,2.5c1.9,0,3.1-1.2,3.5-2.4
		c0.1-0.3,0.1-0.6,0.1-0.8L140.3,132.1L140.3,132.1z"/>
	<path d="M147.1,118.2h2.6v21.2h-2.6V118.2L147.1,118.2z"/>
	<path d="M154.2,118.2h2.6v21.2h-2.6V118.2L154.2,118.2z"/>
	<path d="M174.3,132.1c0,5.4-3.7,7.7-7.2,7.7c-3.9,0-6.9-2.9-6.9-7.4c0-4.8,3.2-7.7,7.2-7.7S174.3,127.7,174.3,132.1L174.3,132.1z
		 M162.8,132.2c0,3.2,1.8,5.6,4.4,5.6s4.4-2.4,4.4-5.6c0-2.4-1.2-5.6-4.3-5.6S162.8,129.5,162.8,132.2z"/>
	<path d="M190.1,125c-0.1,1-0.1,2.2-0.1,4v8.4c0,3.3-0.7,5.4-2.1,6.6c-1.4,1.3-3.4,1.7-5.3,1.7s-3.6-0.4-4.8-1.2l0.7-2
		c1,0.6,2.4,1.1,4.2,1.1c2.7,0,4.7-1.4,4.7-5.1v-1.6h-0.1c-0.8,1.3-2.4,2.4-4.6,2.4c-3.6,0-6.1-3.1-6.1-7.1c0-4.9,3.2-7.7,6.5-7.7
		c2.5,0,3.9,1.3,4.5,2.5h0.1l0.1-2.2L190.1,125L190.1,125z M187.4,130.7c0-0.4,0-0.8-0.1-1.2c-0.5-1.5-1.8-2.8-3.7-2.8
		c-2.5,0-4.3,2.1-4.3,5.5c0,2.8,1.4,5.2,4.3,5.2c1.6,0,3.1-1,3.6-2.7c0.1-0.4,0.2-1,0.2-1.4L187.4,130.7L187.4,130.7z"/>
	<path d="M207.4,132.1c0,5.4-3.7,7.7-7.2,7.7c-3.9,0-6.9-2.9-6.9-7.4c0-4.8,3.2-7.7,7.2-7.7S207.4,127.7,207.4,132.1L207.4,132.1z
		 M195.9,132.2c0,3.2,1.8,5.6,4.4,5.6s4.4-2.4,4.4-5.6c0-2.4-1.2-5.6-4.3-5.6S195.9,129.5,195.9,132.2z"/>
	<path d="M210.7,129.7c0-1.9-0.1-3.4-0.1-4.7h2.4l0.1,2.5h0.1c1.1-1.8,2.8-2.8,5.1-2.8c3.5,0,6.1,3,6.1,7.4c0,5.2-3.2,7.8-6.6,7.8
		c-1.9,0-3.6-0.8-4.4-2.3h-0.1v7.9h-2.6V129.7z M213.3,133.6c0,0.4,0.1,0.8,0.1,1.1c0.5,1.8,2.1,3.1,3.9,3.1c2.8,0,4.4-2.3,4.4-5.6
		c0-2.9-1.5-5.4-4.3-5.4c-1.8,0-3.5,1.3-4,3.3c-0.1,0.3-0.2,0.7-0.2,1.1L213.3,133.6L213.3,133.6z"/>
	<path d="M229.2,132.7c0.1,3.6,2.3,5,5,5c1.9,0,3-0.3,4-0.8l0.5,1.9c-0.9,0.4-2.5,0.9-4.8,0.9c-4.5,0-7.1-2.9-7.1-7.3
		s2.6-7.8,6.8-7.8c4.7,0,6,4.1,6,6.8c0,0.5-0.1,1-0.1,1.2H229.2L229.2,132.7z M236.9,130.8c0-1.7-0.7-4.3-3.6-4.3
		c-2.7,0-3.8,2.4-4,4.3H236.9z"/>
	<path d="M255.2,118.2v17.5c0,1.3,0,2.8,0.1,3.7h-2.4l-0.1-2.5h-0.1c-0.8,1.6-2.6,2.8-4.9,2.8c-3.5,0-6.2-3-6.2-7.4
		c0-4.8,3-7.8,6.5-7.8c2.2,0,3.7,1.1,4.4,2.2h0.1v-8.6L255.2,118.2L255.2,118.2z M252.5,130.9c0-0.3,0-0.8-0.1-1.1
		c-0.4-1.7-1.8-3.1-3.8-3.1c-2.7,0-4.3,2.4-4.3,5.6c0,2.9,1.4,5.4,4.3,5.4c1.8,0,3.4-1.2,3.9-3.1c0.1-0.4,0.1-0.7,0.1-1.1V130.9
		L252.5,130.9z"/>
	<path d="M260.5,125l3.2,8.5c0.3,1,0.7,2.1,0.9,3h0.1c0.3-0.9,0.6-2,0.9-3l2.9-8.5h2.8l-3.9,10.3c-1.9,5-3.2,7.5-5,9.1
		c-1.3,1.1-2.6,1.6-3.2,1.7l-0.7-2.2c0.7-0.2,1.5-0.6,2.3-1.3c0.7-0.6,1.6-1.6,2.2-2.9c0.1-0.3,0.2-0.5,0.2-0.6s-0.1-0.4-0.2-0.7
		l-5.4-13.3L260.5,125L260.5,125z"/>
	<path d="M271.8,137.9c0-1.1,0.8-1.9,1.8-1.9s1.8,0.8,1.8,1.9s-0.7,1.9-1.8,1.9C272.5,139.8,271.8,139,271.8,137.9z"/>
	<path d="M278.6,129.7c0-1.9-0.1-3.4-0.1-4.7h2.4l0.1,2.5h0.1c1.1-1.8,2.8-2.8,5.1-2.8c3.5,0,6.1,3,6.1,7.4c0,5.2-3.2,7.8-6.6,7.8
		c-1.9,0-3.6-0.8-4.5-2.3h-0.1v7.9h-2.6L278.6,129.7L278.6,129.7z M281.2,133.6c0,0.4,0.1,0.8,0.1,1.1c0.5,1.8,2.1,3.1,3.9,3.1
		c2.8,0,4.4-2.3,4.4-5.6c0-2.9-1.5-5.4-4.3-5.4c-1.8,0-3.5,1.3-4,3.3c-0.1,0.3-0.2,0.7-0.2,1.1L281.2,133.6L281.2,133.6z"/>
	<path d="M295.6,118.2h2.6v21.2h-2.6V118.2L295.6,118.2z"/>
</g>
<g>
	<path class="st8" d="M8.2,55.2h4.4v30.6h14.7v3.7H8.2C8.2,89.5,8.2,55.2,8.2,55.2z"/>
	<path class="st8" d="M53.7,77c0,9.1-6.3,13.1-12.3,13.1c-6.7,0-11.8-4.9-11.8-12.7c0-8.3,5.4-13.1,12.2-13.1S53.7,69.4,53.7,77z
		 M34.1,77.2c0,5.4,3.1,9.5,7.5,9.5s7.5-4,7.5-9.6c0-4.2-2.1-9.5-7.4-9.5S34.1,72.6,34.1,77.2L34.1,77.2z"/>
	<path class="st8" d="M80.6,64.9c-0.1,1.8-0.2,3.8-0.2,6.8v14.3c0,5.6-1.1,9.1-3.5,11.3c-2.4,2.2-5.9,2.9-9,2.9
		c-3.1,0-6.2-0.7-8.2-2l1.1-3.4c1.6,1,4.2,1.9,7.2,1.9c4.6,0,7.9-2.4,7.9-8.6v-2.8h-0.1c-1.4,2.3-4,4.1-7.8,4.1
		c-6.1,0-10.5-5.2-10.5-12c0-8.3,5.4-13.1,11.1-13.1c4.3,0,6.6,2.2,7.7,4.3h0.1l0.2-3.7L80.6,64.9L80.6,64.9z M75.9,74.6
		c0-0.8-0.1-1.4-0.3-2c-0.8-2.6-3-4.7-6.3-4.7c-4.3,0-7.3,3.6-7.3,9.3c0,4.8,2.4,8.9,7.3,8.9c2.8,0,5.2-1.7,6.2-4.6
		c0.3-0.8,0.4-1.6,0.4-2.4L75.9,74.6L75.9,74.6z"/>
	<path class="st8" d="M110.1,77c0,9.1-6.3,13.1-12.3,13.1c-6.7,0-11.8-4.9-11.8-12.7c0-8.3,5.4-13.1,12.2-13.1S110.1,69.4,110.1,77z
		 M90.5,77.2c0,5.4,3.1,9.5,7.5,9.5s7.5-4,7.5-9.6c0-4.2-2.1-9.5-7.4-9.5S90.5,72.6,90.5,77.2L90.5,77.2z"/>
	<path class="st8" d="M115.7,72.9c0-3.2-0.1-5.7-0.2-8h4l0.2,4.2h0.1c1.8-3,4.7-4.8,8.8-4.8c6,0,10.4,5,10.4,12.5
		c0,8.9-5.4,13.2-11.2,13.2c-3.3,0-6.1-1.4-7.6-3.9h-0.1v13.4h-4.4L115.7,72.9L115.7,72.9z M120.2,79.5c0,0.7,0.1,1.3,0.2,1.8
		c0.8,3.1,3.5,5.2,6.7,5.2c4.7,0,7.5-3.9,7.5-9.5c0-4.9-2.6-9.2-7.3-9.2c-3.1,0-5.9,2.2-6.8,5.6c-0.1,0.6-0.3,1.2-0.3,1.8V79.5
		L120.2,79.5z"/>
	<path class="st8" d="M147.2,78c0.1,6.1,4,8.5,8.4,8.5c3.2,0,5.1-0.6,6.8-1.3l0.8,3.2c-1.6,0.7-4.3,1.5-8.2,1.5
		c-7.6,0-12.1-5-12.1-12.4s4.4-13.3,11.6-13.3c8,0,10.2,7.1,10.2,11.6c0,0.9-0.1,1.6-0.1,2.1L147.2,78L147.2,78z M160.3,74.8
		c0.1-2.8-1.2-7.3-6.2-7.3c-4.5,0-6.5,4.2-6.9,7.3H160.3L160.3,74.8z"/>
	<path class="st8" d="M191.5,53.4v29.8c0,2.2,0.1,4.7,0.2,6.4h-4l-0.2-4.3h-0.1c-1.4,2.8-4.4,4.8-8.4,4.8c-6,0-10.5-5-10.5-12.5
		c-0.1-8.2,5-13.2,11.1-13.2c3.8,0,6.3,1.8,7.4,3.8h0.1V53.3L191.5,53.4L191.5,53.4z M187,74.9c0-0.6-0.1-1.3-0.2-1.9
		c-0.7-2.8-3.1-5.2-6.5-5.2c-4.6,0-7.4,4.1-7.4,9.5c0,5,2.4,9.1,7.3,9.1c3,0,5.8-2,6.6-5.3c0.1-0.6,0.2-1.2,0.2-1.9
		C187,79.2,187,74.9,187,74.9z"/>
	<path class="st8" d="M200.6,64.9l5.4,14.6c0.6,1.6,1.2,3.6,1.6,5h0.1c0.5-1.5,1-3.4,1.6-5.1l4.9-14.5h4.7l-6.7,17.6
		c-3.2,8.4-5.4,12.8-8.4,15.4c-2.2,1.9-4.4,2.7-5.5,2.9l-1.1-3.8c1.1-0.4,2.6-1.1,3.9-2.2c1.2-1,2.8-2.7,3.8-5
		c0.2-0.5,0.4-0.8,0.4-1.1s-0.1-0.6-0.3-1.2l-9.1-22.7L200.6,64.9L200.6,64.9z"/>
</g>
<path d="M230,101.4c0-1.9,1.3-3.2,3.1-3.2s3,1.3,3,3.2s-1.2,3.2-3.1,3.2C231.2,104.6,230,103.2,230,101.4z"/>
<polygon points="116.3,12.3 110.6,10.9 110.6,13.8 "/>
<path class="st6" d="M302.6,8.6c-6.1-5.5-15.8-8.6-29-8.6c-4.5,0-8.6,0.2-12.3,0.4v11.2c2.3-0.6,6.8-1.1,12.6-1.1
	c14.8,0,24.4,6.6,24.4,20.3s-9.8,22.1-26,22.1c-4.5,0-8.1-0.3-11.1-1.1v10.9c3.1,0.8,6.8,0.9,10.8,0.9c13.1,0,24.6-3.8,31.6-11.4
	c5.2-5.4,8-12.8,8-22.1S308.3,13.5,302.6,8.6L302.6,8.6z"/>
<rect x="261.2" y="92.8" class="st6" width="44.2" height="11.2"/>
<polygon class="st6" points="278.3,31.8 261.2,27.6 261.2,36.1 "/>
<rect x="241.1" y="0.5" width="13.4" height="103.6"/>
</svg>
